<svg xmlns="http://www.w3.org/2000/svg" viewBox="0 0 220 134" width="220" height="134" role="img" aria-label="Stringfellow Construction Group">
  <title>SCG — Concept 03, Rule</title>
  <g fill="none" stroke="#EDEAE4" stroke-width="14" stroke-linecap="butt" stroke-linejoin="miter">
    <path d="M58 10 L22 10 L10 22 L10 32 L22 44 L46 44 L58 56 L58 74 L46 86 L10 86"/>
    <path d="M134 10 L98 10 L86 22 L86 74 L98 86 L134 86"/>
    <path d="M210 10 L174 10 L162 22 L162 74 L174 86 L210 86 L210 52 L190 52"/>
  </g>
  <g stroke="#FF5A14" stroke-width="3" fill="#FF5A14">
    <path d="M3 108 V128"/>
    <path d="M217 108 V128"/>
    <path d="M3 118 H217"/>
    <path d="M3 118 L14 113.5 L14 122.5 Z" stroke="none"/>
    <path d="M217 118 L206 113.5 L206 122.5 Z" stroke="none"/>
  </g>
</svg>
